<?xml version="1.0" standalone="no"?>
<svg
  width="400"
  height="400"
  viewBox="0 0 600 600"
  xmlns="http://www.w3.org/2000/svg"
>
  <g transform="translate(300,300)">
    <path d="M105,-110.8C143.1,-116.9,185.7,-95.6,212.5,-58.3C239.3,-21.1,250.4,31.9,222.4,58C194.3,84.2,127.1,83.3,83.6,112.3C40,141.3,20,200.2,-1.8,202.6C-23.5,205,-47,151.1,-70.2,115.4C-93.3,79.8,-116.1,62.4,-127.3,38.8C-138.5,15.1,-138.2,-14.8,-134.1,-48.5C-129.9,-82.2,-122,-119.6,-99,-118.3C-76,-117,-38,-77,-2.3,-73.9C33.5,-70.8,67,-104.6,105,-110.8Z" fill="#21996d" />
  </g>
</svg>
  